<?xml version="1.0" encoding="utf-8"?>
<!-- Generator: Adobe Illustrator 17.0.0, SVG Export Plug-In . SVG Version: 6.00 Build 0)  -->
<!DOCTYPE svg PUBLIC "-//W3C//DTD SVG 1.1//EN" "http://www.w3.org/Graphics/SVG/1.1/DTD/svg11.dtd">
<svg version="1.1" id="Layer_1" xmlns="http://www.w3.org/2000/svg" xmlns:xlink="http://www.w3.org/1999/xlink" x="0px" y="0px"
	 width="233.763px" height="45.705px" viewBox="44.888 28.059 233.763 45.705"
	 enable-background="new 44.888 28.059 233.763 45.705" xml:space="preserve">
<g enable-background="new    ">
	<path fill="#FFFFFF" d="M44.888,55.904v-27.69h18.018v1.794H46.877v10.998h13.611v1.717H46.877v13.181H44.888z"/>
</g>
<g enable-background="new    ">
	<path fill="#FFFFFF" d="M67.859,55.904v-27.69h1.989v25.897h16.536v1.793H67.859z"/>
</g>
<g enable-background="new    ">
	<path fill="#FFFFFF" d="M97.186,28.41h1.95l4.134,10.062l4.134-10.062h1.95l-4.875,11.661l5.811,13.494l10.608-25.35h2.184
		l-11.856,27.69h-1.833l-6.084-14.235l-6.123,14.235h-1.833l-11.817-27.69h2.145l10.647,25.35l5.733-13.494L97.186,28.41z"/>
	<path fill="#FFFFFF" d="M127.333,55.904v-27.69h11.544c1.17,0,2.249,0.248,3.237,0.741c0.988,0.494,1.833,1.15,2.535,1.97
		s1.254,1.742,1.658,2.769c0.403,1.028,0.604,2.062,0.604,3.101c0,1.015-0.156,1.996-0.468,2.945s-0.754,1.8-1.326,2.554
		c-0.572,0.755-1.262,1.379-2.067,1.872c-0.806,0.494-1.69,0.819-2.652,0.976l6.903,10.763H145l-6.708-10.452h-8.97v10.452H127.333z
		 M129.322,43.62h9.711c0.883,0,1.689-0.195,2.418-0.585c0.728-0.39,1.352-0.903,1.872-1.54s0.917-1.365,1.19-2.185
		c0.273-0.818,0.409-1.657,0.409-2.516c0-0.883-0.163-1.735-0.487-2.554c-0.326-0.819-0.767-1.541-1.326-2.165
		s-1.209-1.124-1.95-1.501c-0.741-0.377-1.541-0.566-2.399-0.566h-9.438V43.62z"/>
	<path fill="#FFFFFF" d="M161.262,41.865c0-1.663,0.293-3.321,0.877-4.973c0.586-1.65,1.438-3.126,2.555-4.427
		c1.118-1.3,2.49-2.359,4.115-3.178c1.624-0.819,3.477-1.229,5.557-1.229c2.471,0,4.576,0.565,6.318,1.696s3.029,2.581,3.861,4.349
		l-1.639,0.936c-0.468-0.961-1.033-1.768-1.695-2.418c-0.664-0.649-1.379-1.176-2.146-1.579c-0.768-0.403-1.567-0.695-2.399-0.878
		c-0.832-0.182-1.65-0.272-2.457-0.272c-1.768,0-3.328,0.357-4.68,1.072c-1.352,0.716-2.496,1.645-3.432,2.788
		c-0.936,1.145-1.645,2.438-2.125,3.881c-0.482,1.443-0.723,2.893-0.723,4.349c0,1.638,0.287,3.198,0.859,4.68
		c0.57,1.483,1.352,2.79,2.34,3.92c0.987,1.131,2.157,2.033,3.51,2.709c1.352,0.678,2.808,1.016,4.367,1.016
		c0.832,0,1.684-0.104,2.555-0.312s1.717-0.533,2.535-0.975c0.819-0.443,1.58-1.008,2.281-1.697
		c0.703-0.689,1.287-1.502,1.756-2.438l1.677,0.818c-0.468,1.041-1.099,1.965-1.892,2.77c-0.793,0.807-1.684,1.482-2.672,2.027
		c-0.988,0.547-2.034,0.957-3.139,1.229c-1.105,0.273-2.191,0.41-3.257,0.41c-1.898,0-3.634-0.416-5.206-1.248
		c-1.574-0.832-2.932-1.916-4.076-3.256s-2.035-2.859-2.672-4.564C161.58,45.369,161.262,43.633,161.262,41.865z"/>
</g>
<g enable-background="new    ">
	<path fill="#FFFFFF" d="M190.16,55.904v-27.69h11.544c1.17,0,2.249,0.248,3.237,0.741c0.987,0.494,1.833,1.15,2.535,1.97
		s1.254,1.742,1.657,2.769c0.403,1.028,0.604,2.062,0.604,3.101c0,1.015-0.156,1.996-0.468,2.945
		c-0.312,0.949-0.755,1.8-1.326,2.554c-0.572,0.755-1.262,1.379-2.067,1.872c-0.806,0.494-1.69,0.819-2.651,0.976l6.902,10.763
		h-2.301l-6.708-10.452h-8.97v10.452H190.16z M192.149,43.62h9.711c0.884,0,1.689-0.195,2.418-0.585
		c0.728-0.39,1.352-0.903,1.872-1.54c0.52-0.637,0.916-1.365,1.189-2.185c0.273-0.818,0.409-1.657,0.409-2.516
		c0-0.883-0.162-1.735-0.487-2.554c-0.325-0.819-0.767-1.541-1.326-2.165c-0.559-0.624-1.209-1.124-1.949-1.501
		c-0.741-0.377-1.541-0.566-2.399-0.566h-9.438V43.62z"/>
</g>
<g enable-background="new    ">
	<path fill="#FFFFFF" d="M225.572,28.41h1.95l4.134,10.062l4.134-10.062h1.95l-4.875,11.661l5.811,13.494l10.608-25.35h2.184
		l-11.855,27.69h-1.833l-6.084-14.235l-6.123,14.235h-1.833l-11.817-27.69h2.146l10.646,25.35l5.733-13.494L225.572,28.41z"/>
	<path fill="#FFFFFF" d="M257.708,31.958v23.946h-1.989v-27.69h1.521l19.422,24.375V28.253h1.989v27.651h-1.833L257.708,31.958z"/>
</g>
<g enable-background="new    ">
	<path fill="#FFFFFF" d="M83.783,73.653v-7.81h5.159v0.88h-4.169v2.606h3.509v0.825h-3.509v3.498H83.783z"/>
</g>
<g enable-background="new    ">
	<path fill="#FFFFFF" d="M90.02,65.623h0.968v6.545c0,0.213,0.057,0.38,0.17,0.501s0.273,0.182,0.479,0.182
		c0.081,0,0.176-0.013,0.286-0.039c0.11-0.025,0.212-0.057,0.308-0.093l0.154,0.78c-0.162,0.066-0.352,0.121-0.572,0.165
		c-0.22,0.044-0.415,0.066-0.583,0.066c-0.374,0-0.669-0.106-0.886-0.319s-0.325-0.51-0.325-0.891V65.623z"/>
</g>
<g enable-background="new    ">
	<path fill="#FFFFFF" d="M95.586,73.764c-0.433,0-0.827-0.081-1.183-0.242c-0.356-0.161-0.66-0.378-0.913-0.649
		c-0.253-0.271-0.449-0.586-0.588-0.945s-0.209-0.737-0.209-1.134c0-0.403,0.071-0.784,0.214-1.144s0.341-0.675,0.594-0.946
		s0.557-0.487,0.913-0.648c0.355-0.161,0.746-0.242,1.171-0.242s0.817,0.081,1.177,0.242s0.666,0.377,0.918,0.648
		c0.253,0.271,0.451,0.587,0.594,0.946s0.214,0.74,0.214,1.144c0,0.396-0.07,0.774-0.209,1.134s-0.337,0.675-0.594,0.945
		c-0.257,0.271-0.563,0.488-0.918,0.649C96.413,73.683,96.019,73.764,95.586,73.764z M93.683,70.805
		c0,0.301,0.049,0.579,0.148,0.836c0.099,0.257,0.234,0.48,0.407,0.671s0.374,0.341,0.605,0.451
		c0.231,0.109,0.479,0.165,0.743,0.165s0.511-0.056,0.743-0.165c0.231-0.11,0.434-0.263,0.61-0.457
		c0.176-0.194,0.313-0.422,0.413-0.682c0.099-0.261,0.148-0.541,0.148-0.842c0-0.293-0.05-0.57-0.148-0.83
		c-0.099-0.261-0.237-0.488-0.413-0.683c-0.176-0.194-0.379-0.347-0.61-0.456c-0.231-0.11-0.479-0.165-0.743-0.165
		s-0.512,0.057-0.743,0.17c-0.231,0.114-0.433,0.269-0.605,0.463s-0.308,0.421-0.407,0.682
		C93.732,70.224,93.683,70.504,93.683,70.805z"/>
</g>
<g enable-background="new    ">
	<path fill="#FFFFFF" d="M102.669,68.759c-0.484,0.015-0.911,0.139-1.281,0.373c-0.371,0.235-0.633,0.562-0.787,0.979v3.542h-0.968
		v-5.742h0.902v1.331c0.198-0.396,0.458-0.724,0.781-0.984c0.323-0.26,0.667-0.391,1.034-0.391c0.073,0,0.136,0,0.187,0
		s0.095,0.004,0.132,0.011V68.759z"/>
</g>
<g enable-background="new    ">
	<path fill="#FFFFFF" d="M105.079,73.764c-0.286,0-0.55-0.046-0.792-0.138c-0.242-0.092-0.451-0.217-0.627-0.374
		c-0.176-0.158-0.313-0.345-0.413-0.562c-0.099-0.216-0.148-0.445-0.148-0.688c0-0.271,0.059-0.519,0.176-0.742
		s0.284-0.414,0.5-0.572c0.216-0.157,0.473-0.278,0.77-0.362c0.297-0.085,0.622-0.127,0.974-0.127c0.279,0,0.561,0.026,0.847,0.077
		c0.286,0.052,0.539,0.121,0.759,0.209v-0.462c0-0.47-0.132-0.838-0.396-1.105s-0.638-0.401-1.122-0.401
		c-0.579,0-1.188,0.224-1.826,0.671l-0.319-0.627c0.374-0.249,0.744-0.437,1.111-0.562c0.366-0.124,0.748-0.187,1.144-0.187
		c0.733,0,1.312,0.201,1.738,0.604s0.638,0.972,0.638,1.705v2.343c0,0.228,0.103,0.346,0.308,0.353v0.836
		c-0.073,0.015-0.143,0.025-0.209,0.033c-0.066,0.007-0.128,0.011-0.187,0.011c-0.161,0-0.319-0.044-0.473-0.132
		c-0.154-0.088-0.239-0.238-0.253-0.451l-0.022-0.407c-0.132,0.177-0.282,0.33-0.451,0.462c-0.169,0.133-0.349,0.242-0.539,0.33
		c-0.191,0.088-0.387,0.154-0.588,0.198C105.476,73.741,105.276,73.764,105.079,73.764z M105.32,73.037
		c0.308,0,0.609-0.065,0.902-0.198c0.293-0.132,0.524-0.293,0.693-0.483c0.139-0.161,0.209-0.312,0.209-0.451v-0.847
		c-0.228-0.088-0.467-0.156-0.72-0.204c-0.253-0.047-0.497-0.071-0.732-0.071c-0.499,0-0.898,0.101-1.199,0.303
		c-0.301,0.201-0.451,0.479-0.451,0.83c0,0.147,0.029,0.288,0.088,0.424s0.143,0.255,0.253,0.357
		c0.11,0.103,0.246,0.186,0.407,0.247C104.932,73.006,105.115,73.037,105.32,73.037z"/>
</g>
<g enable-background="new    ">
	<path fill="#FFFFFF" d="M109.676,65.623h0.968v6.545c0,0.213,0.057,0.38,0.17,0.501s0.273,0.182,0.479,0.182
		c0.081,0,0.176-0.013,0.286-0.039c0.11-0.025,0.212-0.057,0.308-0.093l0.154,0.78c-0.162,0.066-0.352,0.121-0.572,0.165
		c-0.22,0.044-0.415,0.066-0.583,0.066c-0.374,0-0.669-0.106-0.886-0.319s-0.325-0.51-0.325-0.891V65.623z"/>
</g>
<g enable-background="new    ">
	<path fill="#FFFFFF" d="M117.003,73.653l3.212-7.81h0.814l3.201,7.81h-1.056l-0.924-2.288h-3.278l-0.913,2.288H117.003z
		 M120.622,66.987l-1.452,3.608h2.86L120.622,66.987z"/>
	<path fill="#FFFFFF" d="M124.736,70.771c0-0.403,0.07-0.785,0.209-1.145c0.139-0.358,0.337-0.672,0.594-0.94
		c0.256-0.268,0.562-0.479,0.918-0.638c0.355-0.157,0.753-0.236,1.193-0.236c0.572,0,1.065,0.126,1.479,0.379
		c0.414,0.253,0.728,0.593,0.94,1.018l-0.946,0.297c-0.147-0.271-0.352-0.481-0.616-0.632s-0.557-0.226-0.88-0.226
		c-0.264,0-0.514,0.053-0.748,0.159c-0.235,0.106-0.437,0.255-0.605,0.445c-0.169,0.191-0.303,0.415-0.401,0.672
		c-0.099,0.256-0.148,0.538-0.148,0.847c0,0.301,0.051,0.583,0.154,0.847c0.103,0.264,0.24,0.493,0.413,0.688
		c0.172,0.194,0.374,0.347,0.605,0.457c0.231,0.109,0.479,0.165,0.742,0.165c0.169,0,0.336-0.024,0.5-0.072
		c0.165-0.047,0.315-0.111,0.451-0.192c0.136-0.08,0.255-0.174,0.357-0.28s0.176-0.222,0.22-0.347l0.946,0.286
		c-0.088,0.213-0.211,0.407-0.368,0.583c-0.158,0.176-0.343,0.326-0.556,0.451c-0.213,0.125-0.449,0.224-0.709,0.297
		s-0.534,0.11-0.82,0.11c-0.433,0-0.829-0.081-1.188-0.242s-0.667-0.378-0.924-0.649c-0.257-0.271-0.457-0.588-0.6-0.951
		S124.736,71.175,124.736,70.771z"/>
	<path fill="#FFFFFF" d="M130.83,70.771c0-0.403,0.07-0.785,0.209-1.145c0.139-0.358,0.337-0.672,0.594-0.94
		c0.256-0.268,0.562-0.479,0.918-0.638c0.355-0.157,0.753-0.236,1.193-0.236c0.572,0,1.065,0.126,1.479,0.379
		c0.414,0.253,0.728,0.593,0.94,1.018l-0.946,0.297c-0.147-0.271-0.352-0.481-0.616-0.632s-0.557-0.226-0.88-0.226
		c-0.264,0-0.514,0.053-0.748,0.159c-0.235,0.106-0.437,0.255-0.605,0.445c-0.169,0.191-0.303,0.415-0.401,0.672
		c-0.099,0.256-0.148,0.538-0.148,0.847c0,0.301,0.051,0.583,0.154,0.847c0.103,0.264,0.24,0.493,0.413,0.688
		c0.172,0.194,0.374,0.347,0.605,0.457c0.231,0.109,0.479,0.165,0.742,0.165c0.169,0,0.336-0.024,0.5-0.072
		c0.165-0.047,0.315-0.111,0.451-0.192c0.136-0.08,0.255-0.174,0.357-0.28s0.176-0.222,0.22-0.347l0.946,0.286
		c-0.088,0.213-0.211,0.407-0.368,0.583c-0.158,0.176-0.343,0.326-0.556,0.451c-0.213,0.125-0.449,0.224-0.709,0.297
		s-0.534,0.11-0.82,0.11c-0.433,0-0.829-0.081-1.188-0.242s-0.667-0.378-0.924-0.649c-0.257-0.271-0.457-0.588-0.6-0.951
		S130.83,71.175,130.83,70.771z"/>
	<path fill="#FFFFFF" d="M139.849,73.764c-0.433,0-0.829-0.079-1.188-0.237c-0.359-0.157-0.667-0.372-0.924-0.643
		c-0.257-0.271-0.457-0.589-0.6-0.952s-0.214-0.746-0.214-1.149s0.071-0.784,0.214-1.144s0.345-0.675,0.605-0.946
		s0.57-0.485,0.93-0.644c0.359-0.157,0.755-0.236,1.188-0.236s0.827,0.081,1.183,0.242c0.355,0.161,0.658,0.376,0.907,0.644
		c0.25,0.268,0.442,0.579,0.578,0.935s0.204,0.725,0.204,1.105c0,0.081-0.002,0.154-0.005,0.22
		c-0.004,0.066-0.009,0.118-0.017,0.154h-4.763c0.022,0.286,0.088,0.547,0.198,0.781c0.11,0.234,0.253,0.437,0.429,0.604
		c0.176,0.169,0.376,0.301,0.6,0.396c0.224,0.095,0.46,0.143,0.709,0.143c0.176,0,0.348-0.023,0.517-0.071
		c0.168-0.048,0.326-0.111,0.473-0.192c0.146-0.081,0.276-0.18,0.39-0.297s0.2-0.249,0.259-0.396l0.836,0.231
		c-0.096,0.213-0.226,0.407-0.391,0.583s-0.356,0.328-0.572,0.456c-0.217,0.129-0.457,0.229-0.721,0.303
		S140.135,73.764,139.849,73.764z M141.818,70.397c-0.022-0.271-0.09-0.522-0.204-0.754c-0.114-0.23-0.257-0.427-0.429-0.588
		c-0.172-0.161-0.373-0.288-0.6-0.38c-0.228-0.092-0.469-0.138-0.726-0.138s-0.499,0.046-0.726,0.138
		c-0.228,0.092-0.427,0.22-0.6,0.385s-0.312,0.361-0.418,0.589s-0.17,0.477-0.192,0.748H141.818z"/>
	<path fill="#FFFFFF" d="M145.822,73.764c-0.462,0-0.917-0.072-1.364-0.215c-0.448-0.143-0.833-0.351-1.155-0.621l0.418-0.649
		c0.337,0.257,0.675,0.449,1.012,0.577c0.337,0.129,0.693,0.192,1.067,0.192c0.418,0,0.75-0.082,0.996-0.247
		c0.246-0.165,0.369-0.397,0.369-0.698c0-0.14-0.033-0.259-0.099-0.357c-0.066-0.1-0.165-0.186-0.297-0.259
		c-0.132-0.073-0.301-0.14-0.506-0.198c-0.205-0.059-0.444-0.121-0.715-0.187c-0.345-0.088-0.642-0.173-0.891-0.253
		c-0.25-0.081-0.455-0.177-0.616-0.286c-0.162-0.11-0.279-0.242-0.352-0.396c-0.074-0.153-0.11-0.345-0.11-0.571
		c0-0.286,0.057-0.541,0.171-0.765c0.113-0.224,0.27-0.411,0.467-0.562c0.198-0.15,0.431-0.264,0.699-0.341
		c0.268-0.077,0.555-0.115,0.863-0.115c0.433,0,0.836,0.069,1.21,0.209s0.689,0.322,0.946,0.55l-0.44,0.583
		c-0.242-0.213-0.513-0.372-0.814-0.479s-0.608-0.159-0.924-0.159c-0.352,0-0.651,0.075-0.896,0.226s-0.369,0.39-0.369,0.72
		c0,0.133,0.024,0.242,0.072,0.33c0.047,0.088,0.126,0.165,0.236,0.231c0.11,0.065,0.251,0.125,0.423,0.176
		c0.172,0.052,0.38,0.106,0.622,0.165c0.381,0.088,0.713,0.178,0.996,0.27s0.517,0.2,0.704,0.324
		c0.187,0.125,0.326,0.271,0.418,0.44c0.091,0.169,0.137,0.374,0.137,0.616c0,0.535-0.205,0.961-0.616,1.275
		C147.073,73.605,146.519,73.764,145.822,73.764z"/>
	<path fill="#FFFFFF" d="M151.245,73.764c-0.462,0-0.917-0.072-1.364-0.215c-0.448-0.143-0.833-0.351-1.155-0.621l0.418-0.649
		c0.337,0.257,0.675,0.449,1.012,0.577c0.337,0.129,0.693,0.192,1.067,0.192c0.418,0,0.75-0.082,0.996-0.247
		c0.246-0.165,0.369-0.397,0.369-0.698c0-0.14-0.033-0.259-0.099-0.357c-0.066-0.1-0.165-0.186-0.297-0.259
		c-0.132-0.073-0.301-0.14-0.506-0.198c-0.205-0.059-0.444-0.121-0.715-0.187c-0.345-0.088-0.642-0.173-0.891-0.253
		c-0.25-0.081-0.455-0.177-0.616-0.286c-0.162-0.11-0.279-0.242-0.352-0.396c-0.074-0.153-0.11-0.345-0.11-0.571
		c0-0.286,0.057-0.541,0.171-0.765c0.113-0.224,0.27-0.411,0.467-0.562c0.198-0.15,0.431-0.264,0.699-0.341
		c0.268-0.077,0.555-0.115,0.863-0.115c0.433,0,0.836,0.069,1.21,0.209s0.689,0.322,0.946,0.55l-0.44,0.583
		c-0.242-0.213-0.513-0.372-0.814-0.479s-0.608-0.159-0.924-0.159c-0.352,0-0.651,0.075-0.896,0.226s-0.369,0.39-0.369,0.72
		c0,0.133,0.024,0.242,0.072,0.33c0.047,0.088,0.126,0.165,0.236,0.231c0.11,0.065,0.251,0.125,0.423,0.176
		c0.172,0.052,0.38,0.106,0.622,0.165c0.381,0.088,0.713,0.178,0.996,0.27s0.517,0.2,0.704,0.324
		c0.187,0.125,0.326,0.271,0.418,0.44c0.091,0.169,0.137,0.374,0.137,0.616c0,0.535-0.205,0.961-0.616,1.275
		C152.496,73.605,151.942,73.764,151.245,73.764z"/>
	<path fill="#FFFFFF" d="M157.163,73.764c-0.433,0-0.827-0.081-1.183-0.242c-0.356-0.161-0.66-0.378-0.913-0.649
		c-0.253-0.271-0.449-0.586-0.588-0.945s-0.209-0.737-0.209-1.134c0-0.403,0.071-0.784,0.214-1.144s0.341-0.675,0.594-0.946
		s0.557-0.487,0.913-0.648c0.355-0.161,0.746-0.242,1.171-0.242s0.817,0.081,1.177,0.242s0.666,0.377,0.918,0.648
		c0.253,0.271,0.451,0.587,0.594,0.946s0.214,0.74,0.214,1.144c0,0.396-0.07,0.774-0.209,1.134s-0.337,0.675-0.594,0.945
		c-0.257,0.271-0.563,0.488-0.918,0.649C157.99,73.683,157.596,73.764,157.163,73.764z M155.26,70.805
		c0,0.301,0.049,0.579,0.148,0.836c0.099,0.257,0.234,0.48,0.407,0.671s0.374,0.341,0.605,0.451
		c0.231,0.109,0.479,0.165,0.743,0.165s0.511-0.056,0.743-0.165c0.231-0.11,0.434-0.263,0.61-0.457
		c0.176-0.194,0.313-0.422,0.413-0.682c0.099-0.261,0.148-0.541,0.148-0.842c0-0.293-0.05-0.57-0.148-0.83
		c-0.099-0.261-0.237-0.488-0.413-0.683c-0.176-0.194-0.379-0.347-0.61-0.456c-0.231-0.11-0.479-0.165-0.743-0.165
		s-0.512,0.057-0.743,0.17c-0.231,0.114-0.433,0.269-0.605,0.463s-0.308,0.421-0.407,0.682
		C155.31,70.224,155.26,70.504,155.26,70.805z"/>
	<path fill="#FFFFFF" d="M164.247,68.759c-0.484,0.015-0.911,0.139-1.281,0.373c-0.371,0.235-0.633,0.562-0.787,0.979v3.542h-0.968
		v-5.742h0.902v1.331c0.197-0.396,0.458-0.724,0.78-0.984c0.323-0.26,0.668-0.391,1.034-0.391c0.073,0,0.136,0,0.188,0
		c0.051,0,0.095,0.004,0.132,0.011V68.759z"/>
	<path fill="#FFFFFF" d="M165.192,66.833v-1.21h0.969v1.21H165.192z M165.192,73.653v-5.742h0.969v5.742H165.192z"/>
	<path fill="#FFFFFF" d="M170.241,73.764c-0.433,0-0.828-0.079-1.188-0.237c-0.359-0.157-0.667-0.372-0.924-0.643
		c-0.257-0.271-0.457-0.589-0.6-0.952c-0.144-0.363-0.215-0.746-0.215-1.149s0.071-0.784,0.215-1.144
		c0.143-0.359,0.345-0.675,0.604-0.946c0.261-0.271,0.57-0.485,0.93-0.644c0.359-0.157,0.756-0.236,1.188-0.236
		s0.826,0.081,1.183,0.242c0.355,0.161,0.658,0.376,0.907,0.644s0.441,0.579,0.577,0.935s0.204,0.725,0.204,1.105
		c0,0.081-0.002,0.154-0.006,0.22c-0.004,0.066-0.009,0.118-0.017,0.154h-4.763c0.021,0.286,0.088,0.547,0.198,0.781
		c0.109,0.234,0.253,0.437,0.429,0.604c0.176,0.169,0.376,0.301,0.6,0.396c0.224,0.095,0.46,0.143,0.709,0.143
		c0.176,0,0.349-0.023,0.518-0.071c0.168-0.048,0.326-0.111,0.473-0.192s0.276-0.18,0.391-0.297
		c0.113-0.117,0.199-0.249,0.259-0.396l0.836,0.231c-0.096,0.213-0.226,0.407-0.391,0.583s-0.356,0.328-0.572,0.456
		c-0.217,0.129-0.456,0.229-0.721,0.303C170.803,73.727,170.527,73.764,170.241,73.764z M172.211,70.397
		c-0.022-0.271-0.09-0.522-0.204-0.754c-0.113-0.23-0.257-0.427-0.429-0.588s-0.372-0.288-0.6-0.38s-0.469-0.138-0.726-0.138
		s-0.499,0.046-0.727,0.138s-0.427,0.22-0.6,0.385c-0.172,0.165-0.312,0.361-0.418,0.589s-0.17,0.477-0.192,0.748H172.211z"/>
	<path fill="#FFFFFF" d="M176.215,73.764c-0.462,0-0.917-0.072-1.364-0.215s-0.832-0.351-1.155-0.621l0.418-0.649
		c0.338,0.257,0.675,0.449,1.013,0.577c0.337,0.129,0.692,0.192,1.066,0.192c0.418,0,0.75-0.082,0.996-0.247
		c0.245-0.165,0.368-0.397,0.368-0.698c0-0.14-0.033-0.259-0.099-0.357c-0.066-0.1-0.165-0.186-0.297-0.259
		c-0.133-0.073-0.301-0.14-0.507-0.198c-0.205-0.059-0.443-0.121-0.715-0.187c-0.345-0.088-0.642-0.173-0.891-0.253
		c-0.25-0.081-0.455-0.177-0.616-0.286c-0.161-0.11-0.278-0.242-0.352-0.396c-0.074-0.153-0.11-0.345-0.11-0.571
		c0-0.286,0.057-0.541,0.171-0.765c0.113-0.224,0.27-0.411,0.467-0.562c0.198-0.15,0.431-0.264,0.699-0.341
		c0.268-0.077,0.555-0.115,0.863-0.115c0.433,0,0.836,0.069,1.21,0.209s0.689,0.322,0.945,0.55l-0.439,0.583
		c-0.242-0.213-0.514-0.372-0.814-0.479s-0.608-0.159-0.924-0.159c-0.352,0-0.65,0.075-0.896,0.226
		c-0.245,0.15-0.368,0.39-0.368,0.72c0,0.133,0.023,0.242,0.071,0.33s0.127,0.165,0.236,0.231c0.11,0.065,0.251,0.125,0.424,0.176
		c0.172,0.052,0.38,0.106,0.621,0.165c0.382,0.088,0.714,0.178,0.996,0.27s0.517,0.2,0.704,0.324
		c0.187,0.125,0.326,0.271,0.418,0.44c0.091,0.169,0.137,0.374,0.137,0.616c0,0.535-0.205,0.961-0.615,1.275
		C177.465,73.605,176.911,73.764,176.215,73.764z"/>
	<path fill="#FFFFFF" d="M187.775,73.653l-0.813-0.847c-0.315,0.308-0.67,0.544-1.062,0.709c-0.393,0.165-0.812,0.248-1.26,0.248
		c-0.359,0-0.693-0.056-1.001-0.165c-0.308-0.11-0.576-0.263-0.803-0.457c-0.228-0.194-0.405-0.423-0.533-0.688
		c-0.129-0.264-0.193-0.554-0.193-0.869c0-0.256,0.043-0.493,0.127-0.709c0.084-0.217,0.198-0.416,0.341-0.6
		c0.144-0.184,0.309-0.354,0.495-0.512c0.187-0.157,0.383-0.31,0.589-0.456c-0.184-0.198-0.338-0.378-0.462-0.539
		c-0.125-0.161-0.226-0.313-0.303-0.457c-0.077-0.143-0.134-0.278-0.171-0.406c-0.036-0.129-0.055-0.263-0.055-0.402
		c0-0.249,0.051-0.481,0.154-0.698c0.103-0.216,0.243-0.403,0.423-0.561c0.18-0.158,0.393-0.281,0.639-0.369
		c0.245-0.088,0.511-0.132,0.797-0.132c0.265,0,0.512,0.037,0.742,0.11c0.231,0.073,0.433,0.18,0.605,0.318
		c0.172,0.14,0.308,0.309,0.407,0.507c0.099,0.197,0.148,0.418,0.148,0.659c0,0.221-0.042,0.426-0.127,0.616
		c-0.084,0.191-0.197,0.369-0.341,0.534c-0.143,0.165-0.313,0.32-0.512,0.467c-0.197,0.147-0.406,0.294-0.627,0.44l1.991,2.09
		c0.14-0.264,0.248-0.552,0.324-0.863c0.077-0.312,0.116-0.644,0.116-0.996h0.803c-0.008,0.478-0.068,0.921-0.182,1.331
		c-0.113,0.411-0.276,0.785-0.489,1.122l1.507,1.573H187.775z M184.739,72.993c0.33,0,0.639-0.065,0.925-0.198
		c0.286-0.132,0.542-0.314,0.77-0.55l-2.222-2.343c-0.345,0.249-0.625,0.508-0.842,0.775c-0.216,0.268-0.324,0.574-0.324,0.919
		c0,0.22,0.048,0.418,0.143,0.594c0.096,0.176,0.222,0.322,0.38,0.439c0.157,0.118,0.337,0.208,0.539,0.27
		C184.309,72.962,184.52,72.993,184.739,72.993z M183.562,67.482c0,0.081,0.013,0.161,0.039,0.242c0.025,0.08,0.069,0.17,0.132,0.27
		c0.062,0.099,0.148,0.214,0.259,0.346c0.109,0.133,0.249,0.29,0.418,0.474c0.374-0.249,0.682-0.484,0.924-0.704
		s0.362-0.47,0.362-0.748c0-0.257-0.095-0.468-0.285-0.633c-0.191-0.165-0.434-0.247-0.727-0.247c-0.33,0-0.6,0.097-0.809,0.291
		S183.562,67.204,183.562,67.482z"/>
	<path fill="#FFFFFF" d="M192.341,69.693c0-0.47,0.082-0.937,0.247-1.402s0.407-0.884,0.727-1.254
		c0.318-0.37,0.709-0.669,1.171-0.896s0.986-0.341,1.573-0.341c0.696,0,1.294,0.157,1.793,0.473s0.869,0.726,1.111,1.231
		l-0.781,0.507c-0.117-0.25-0.259-0.459-0.424-0.627c-0.165-0.169-0.345-0.305-0.539-0.407s-0.394-0.176-0.599-0.221
		c-0.206-0.044-0.407-0.065-0.605-0.065c-0.433,0-0.815,0.09-1.149,0.27s-0.614,0.414-0.842,0.704
		c-0.228,0.289-0.397,0.616-0.512,0.979c-0.113,0.363-0.17,0.729-0.17,1.095c0,0.411,0.067,0.802,0.203,1.172
		s0.325,0.698,0.566,0.984c0.242,0.286,0.528,0.513,0.858,0.682s0.689,0.253,1.078,0.253c0.205,0,0.416-0.025,0.632-0.077
		c0.217-0.051,0.424-0.134,0.622-0.247s0.383-0.257,0.556-0.429c0.172-0.173,0.313-0.38,0.423-0.622l0.825,0.451
		c-0.125,0.293-0.299,0.552-0.522,0.775s-0.477,0.413-0.759,0.566c-0.282,0.154-0.581,0.271-0.896,0.353
		c-0.315,0.08-0.623,0.121-0.924,0.121c-0.536,0-1.027-0.117-1.475-0.353c-0.447-0.234-0.834-0.541-1.16-0.918
		c-0.326-0.378-0.579-0.807-0.759-1.287S192.341,70.192,192.341,69.693z"/>
	<path fill="#FFFFFF" d="M203.208,68.759c-0.483,0.015-0.911,0.139-1.281,0.373c-0.37,0.235-0.633,0.562-0.786,0.979v3.542h-0.969
		v-5.742h0.902v1.331c0.198-0.396,0.458-0.724,0.781-0.984c0.322-0.26,0.667-0.391,1.034-0.391c0.073,0,0.136,0,0.187,0
		c0.052,0,0.096,0.004,0.132,0.011V68.759z"/>
	<path fill="#FFFFFF" d="M206.717,73.764c-0.433,0-0.828-0.079-1.188-0.237c-0.359-0.157-0.667-0.372-0.924-0.643
		c-0.257-0.271-0.457-0.589-0.6-0.952c-0.144-0.363-0.215-0.746-0.215-1.149s0.071-0.784,0.215-1.144
		c0.143-0.359,0.345-0.675,0.604-0.946c0.261-0.271,0.57-0.485,0.93-0.644c0.359-0.157,0.756-0.236,1.188-0.236
		s0.826,0.081,1.183,0.242c0.355,0.161,0.658,0.376,0.907,0.644s0.441,0.579,0.577,0.935s0.204,0.725,0.204,1.105
		c0,0.081-0.002,0.154-0.006,0.22c-0.004,0.066-0.009,0.118-0.017,0.154h-4.763c0.021,0.286,0.088,0.547,0.198,0.781
		c0.109,0.234,0.253,0.437,0.429,0.604c0.176,0.169,0.376,0.301,0.6,0.396c0.224,0.095,0.46,0.143,0.709,0.143
		c0.176,0,0.349-0.023,0.518-0.071c0.168-0.048,0.326-0.111,0.473-0.192s0.276-0.18,0.391-0.297
		c0.113-0.117,0.199-0.249,0.259-0.396l0.836,0.231c-0.096,0.213-0.226,0.407-0.391,0.583s-0.356,0.328-0.572,0.456
		c-0.217,0.129-0.456,0.229-0.721,0.303C207.278,73.727,207.003,73.764,206.717,73.764z M208.687,70.397
		c-0.022-0.271-0.09-0.522-0.204-0.754c-0.113-0.23-0.257-0.427-0.429-0.588s-0.372-0.288-0.6-0.38s-0.469-0.138-0.726-0.138
		s-0.499,0.046-0.727,0.138s-0.427,0.22-0.6,0.385c-0.172,0.165-0.312,0.361-0.418,0.589s-0.17,0.477-0.192,0.748H208.687z"/>
</g>
<g enable-background="new    ">
	<path fill="#FFFFFF" d="M212.206,73.764c-0.286,0-0.551-0.046-0.792-0.138c-0.242-0.092-0.451-0.217-0.627-0.374
		c-0.177-0.158-0.313-0.345-0.413-0.562c-0.099-0.216-0.148-0.445-0.148-0.688c0-0.271,0.059-0.519,0.176-0.742
		s0.284-0.414,0.501-0.572c0.216-0.157,0.473-0.278,0.77-0.362c0.298-0.085,0.622-0.127,0.974-0.127
		c0.279,0,0.562,0.026,0.848,0.077c0.285,0.052,0.539,0.121,0.759,0.209v-0.462c0-0.47-0.132-0.838-0.396-1.105
		c-0.264-0.268-0.638-0.401-1.122-0.401c-0.579,0-1.188,0.224-1.825,0.671l-0.319-0.627c0.374-0.249,0.744-0.437,1.111-0.562
		c0.366-0.124,0.747-0.187,1.144-0.187c0.733,0,1.312,0.201,1.738,0.604c0.425,0.403,0.638,0.972,0.638,1.705v2.343
		c0,0.228,0.103,0.346,0.308,0.353v0.836c-0.073,0.015-0.143,0.025-0.209,0.033c-0.065,0.007-0.128,0.011-0.187,0.011
		c-0.161,0-0.319-0.044-0.473-0.132c-0.154-0.088-0.239-0.238-0.254-0.451l-0.021-0.407c-0.132,0.177-0.282,0.33-0.451,0.462
		c-0.169,0.133-0.349,0.242-0.539,0.33s-0.387,0.154-0.588,0.198C212.604,73.741,212.403,73.764,212.206,73.764z M212.447,73.037
		c0.309,0,0.609-0.065,0.902-0.198c0.293-0.132,0.524-0.293,0.693-0.483c0.139-0.161,0.209-0.312,0.209-0.451v-0.847
		c-0.228-0.088-0.468-0.156-0.721-0.204c-0.253-0.047-0.497-0.071-0.731-0.071c-0.499,0-0.898,0.101-1.199,0.303
		c-0.301,0.201-0.451,0.479-0.451,0.83c0,0.147,0.029,0.288,0.088,0.424s0.144,0.255,0.254,0.357
		c0.109,0.103,0.245,0.186,0.406,0.247C212.059,73.006,212.242,73.037,212.447,73.037z"/>
</g>
<g enable-background="new    ">
	<path fill="#FFFFFF" d="M219.675,73.367c-0.059,0.029-0.136,0.064-0.231,0.104c-0.095,0.041-0.203,0.081-0.324,0.121
		s-0.253,0.073-0.396,0.099c-0.144,0.026-0.292,0.039-0.446,0.039c-0.352,0-0.656-0.098-0.912-0.292
		c-0.257-0.194-0.386-0.496-0.386-0.907V68.67h-0.78v-0.759h0.78v-1.914h0.969v1.914h1.286v0.759h-1.286v3.564
		c0.015,0.213,0.084,0.367,0.209,0.462c0.124,0.096,0.271,0.143,0.439,0.143c0.19,0,0.365-0.03,0.522-0.093
		c0.158-0.062,0.266-0.112,0.324-0.148L219.675,73.367z"/>
	<path fill="#FFFFFF" d="M220.511,66.833v-1.21h0.968v1.21H220.511z M220.511,73.653v-5.742h0.968v5.742H220.511z"/>
	<path fill="#FFFFFF" d="M225.526,73.764c-0.433,0-0.827-0.081-1.183-0.242s-0.66-0.378-0.913-0.649
		c-0.253-0.271-0.449-0.586-0.588-0.945c-0.14-0.359-0.209-0.737-0.209-1.134c0-0.403,0.071-0.784,0.214-1.144
		c0.144-0.359,0.342-0.675,0.595-0.946s0.557-0.487,0.913-0.648c0.355-0.161,0.746-0.242,1.171-0.242
		c0.426,0,0.817,0.081,1.177,0.242s0.666,0.377,0.919,0.648s0.451,0.587,0.594,0.946c0.144,0.359,0.215,0.74,0.215,1.144
		c0,0.396-0.07,0.774-0.209,1.134c-0.14,0.359-0.338,0.675-0.594,0.945c-0.257,0.271-0.563,0.488-0.919,0.649
		S225.959,73.764,225.526,73.764z M223.624,70.805c0,0.301,0.049,0.579,0.148,0.836c0.099,0.257,0.234,0.48,0.406,0.671
		c0.173,0.19,0.374,0.341,0.605,0.451c0.23,0.109,0.479,0.165,0.742,0.165c0.265,0,0.512-0.056,0.743-0.165
		c0.23-0.11,0.434-0.263,0.61-0.457c0.176-0.194,0.313-0.422,0.412-0.682c0.099-0.261,0.148-0.541,0.148-0.842
		c0-0.293-0.05-0.57-0.148-0.83c-0.099-0.261-0.236-0.488-0.412-0.683c-0.177-0.194-0.38-0.347-0.61-0.456
		c-0.231-0.11-0.479-0.165-0.743-0.165c-0.264,0-0.512,0.057-0.742,0.17c-0.231,0.114-0.433,0.269-0.605,0.463
		c-0.172,0.194-0.308,0.421-0.406,0.682C223.673,70.224,223.624,70.504,223.624,70.805z"/>
	<path fill="#FFFFFF" d="M234.558,73.653h-0.968v-3.212c0-0.616-0.094-1.063-0.28-1.342c-0.188-0.279-0.472-0.418-0.853-0.418
		c-0.198,0-0.396,0.038-0.595,0.115c-0.197,0.077-0.385,0.182-0.561,0.313s-0.33,0.29-0.462,0.473
		c-0.132,0.184-0.231,0.386-0.297,0.605v3.465h-0.969v-5.742h0.881v1.232c0.227-0.403,0.555-0.727,0.984-0.968
		c0.429-0.242,0.896-0.363,1.402-0.363c0.33,0,0.604,0.061,0.825,0.182c0.22,0.121,0.396,0.289,0.527,0.506
		c0.133,0.216,0.226,0.471,0.281,0.765c0.055,0.293,0.082,0.612,0.082,0.957V73.653z"/>
	<path fill="#FFFFFF" d="M238.056,73.764c-0.462,0-0.917-0.072-1.364-0.215s-0.832-0.351-1.155-0.621l0.418-0.649
		c0.338,0.257,0.675,0.449,1.013,0.577c0.337,0.129,0.692,0.192,1.066,0.192c0.418,0,0.75-0.082,0.996-0.247
		c0.245-0.165,0.368-0.397,0.368-0.698c0-0.14-0.033-0.259-0.099-0.357c-0.066-0.1-0.165-0.186-0.297-0.259
		c-0.133-0.073-0.301-0.14-0.507-0.198c-0.205-0.059-0.443-0.121-0.715-0.187c-0.345-0.088-0.642-0.173-0.891-0.253
		c-0.25-0.081-0.455-0.177-0.616-0.286c-0.161-0.11-0.278-0.242-0.352-0.396c-0.074-0.153-0.11-0.345-0.11-0.571
		c0-0.286,0.057-0.541,0.171-0.765c0.113-0.224,0.27-0.411,0.467-0.562c0.198-0.15,0.431-0.264,0.699-0.341
		c0.268-0.077,0.555-0.115,0.863-0.115c0.433,0,0.836,0.069,1.21,0.209s0.689,0.322,0.945,0.55l-0.439,0.583
		c-0.242-0.213-0.514-0.372-0.814-0.479s-0.608-0.159-0.924-0.159c-0.352,0-0.65,0.075-0.896,0.226
		c-0.245,0.15-0.368,0.39-0.368,0.72c0,0.133,0.023,0.242,0.071,0.33s0.127,0.165,0.236,0.231c0.11,0.065,0.251,0.125,0.424,0.176
		c0.172,0.052,0.38,0.106,0.621,0.165c0.382,0.088,0.714,0.178,0.996,0.27s0.517,0.2,0.704,0.324
		c0.187,0.125,0.326,0.271,0.418,0.44c0.091,0.169,0.137,0.374,0.137,0.616c0,0.535-0.205,0.961-0.615,1.275
		C239.306,73.605,238.752,73.764,238.056,73.764z"/>
</g>
</svg>
